<svg width="34" height="34" viewBox="0 0 34 34" fill="none" xmlns="http://www.w3.org/2000/svg">
<circle cx="17" cy="17" r="17" fill="white"/>
<path d="M9.66699 22.5C9.66699 21.5275 10.0533 20.5949 10.7409 19.9073C11.4286 19.2197 12.3612 18.8333 13.3337 18.8333H20.667C21.6395 18.8333 22.5721 19.2197 23.2597 19.9073C23.9474 20.5949 24.3337 21.5275 24.3337 22.5C24.3337 22.9862 24.1405 23.4526 23.7967 23.7964C23.4529 24.1402 22.9866 24.3333 22.5003 24.3333H11.5003C11.0141 24.3333 10.5478 24.1402 10.204 23.7964C9.86015 23.4526 9.66699 22.9862 9.66699 22.5Z" stroke="#F6911E" stroke-width="1.5" stroke-linejoin="round"/>
<path d="M17 15.1667C18.5188 15.1667 19.75 13.9355 19.75 12.4167C19.75 10.8979 18.5188 9.66667 17 9.66667C15.4812 9.66667 14.25 10.8979 14.25 12.4167C14.25 13.9355 15.4812 15.1667 17 15.1667Z" stroke="#F6911E" stroke-width="1.5"/>
</svg>
