<svg width="34" height="34" viewBox="0 0 34 34" fill="none" xmlns="http://www.w3.org/2000/svg">
<circle cx="17" cy="17" r="17" fill="white"/>
<path d="M22.9156 17.3983L23.9326 18.3039C24.1204 18.4606 24.2459 18.6794 24.2863 18.9206C24.3268 19.1619 24.2795 19.4096 24.1531 19.619L22.9268 21.7138C22.8317 21.8741 22.6959 22.0064 22.5331 22.0974C22.3684 22.1885 22.1835 22.2368 21.9953 22.238C21.8786 22.2387 21.7625 22.2213 21.6511 22.1863L20.3495 21.7565C20.1215 21.9028 19.8845 22.0336 19.6385 22.1491L19.3651 23.4688C19.3145 23.7115 19.1793 23.9284 18.9837 24.0808C18.7856 24.2358 18.54 24.3177 18.2885 24.3125H15.7493C15.4978 24.3177 15.2522 24.2358 15.0541 24.0808C14.8589 23.9282 14.7241 23.7113 14.6738 23.4688L14.3993 22.1491C14.1566 22.0321 13.921 21.9006 13.694 21.7554L12.3878 22.1863C12.2765 22.2213 12.1603 22.2387 12.0436 22.238C11.8558 22.2367 11.6713 22.1883 11.507 22.0974C11.3443 22.0068 11.2085 21.8748 11.1132 21.7149L9.84308 19.619C9.71104 19.4077 9.66059 19.1555 9.70118 18.9097C9.74177 18.6638 9.87062 18.4413 10.0636 18.2836L11.0795 17V16.6018L10.0625 15.6961C9.87466 15.5394 9.74917 15.3206 9.70872 15.0794C9.66828 14.8382 9.71554 14.5904 9.84196 14.381L11.1121 12.2863C11.2072 12.1259 11.3431 11.9936 11.5058 11.9026C11.6702 11.8117 11.8547 11.7633 12.0425 11.762C12.1581 11.7547 12.2743 11.7653 12.3867 11.7935L13.667 12.2435C13.8957 12.0973 14.1327 11.9664 14.378 11.8509L14.6525 10.5313C14.7028 10.2887 14.8375 10.0718 15.0327 9.91925C15.2308 9.76417 15.4764 9.6823 15.728 9.6875H18.2457C18.4972 9.6823 18.7429 9.76417 18.941 9.91925C19.1378 10.0734 19.2728 10.2905 19.3212 10.5313L19.5957 11.8509C19.8395 11.9671 20.0746 12.0984 20.3011 12.2446L21.6083 11.8149C21.7534 11.7677 21.9067 11.7511 22.0585 11.7662C22.2104 11.7813 22.3574 11.8278 22.4903 11.9026C22.6535 11.9949 22.7885 12.1276 22.8841 12.2851L24.1531 14.381C24.2869 14.5905 24.3399 14.8415 24.3022 15.0873C24.2646 15.333 24.1388 15.5566 23.9483 15.7164L22.9156 16.5961V17.3983Z" stroke="#F6911E"/>
<path d="M19.8125 17C19.8125 17.7459 19.5162 18.4613 18.9887 18.9887C18.4613 19.5162 17.7459 19.8125 17 19.8125C16.2541 19.8125 15.5387 19.5162 15.0113 18.9887C14.4838 18.4613 14.1875 17.7459 14.1875 17C14.1875 16.2541 14.4838 15.5387 15.0113 15.0113C15.5387 14.4838 16.2541 14.1875 17 14.1875C17.7459 14.1875 18.4613 14.4838 18.9887 15.0113C19.5162 15.5387 19.8125 16.2541 19.8125 17Z" stroke="#F6911E"/>
</svg>
